<?xml version="1.0" standalone="no"?>
<!DOCTYPE svg PUBLIC "-//W3C//DTD SVG 20010904//EN"
 "http://www.w3.org/TR/2001/REC-SVG-20010904/DTD/svg10.dtd">
<svg version="1.0" xmlns="http://www.w3.org/2000/svg"
 width="512.000000pt" height="512.000000pt" viewBox="0 0 512.000000 512.000000"
 preserveAspectRatio="xMidYMid meet">
<metadata>
Created by potrace 1.14, written by Peter Selinger 2001-2017
</metadata>
<g transform="translate(0.000000,512.000000) scale(0.100000,-0.100000)"
fill="#000000" stroke="none">
<path d="M2379 5116 c-2 -2 -40 -6 -83 -10 -44 -4 -82 -8 -85 -10 -3 -2 -28
-7 -56 -10 -104 -13 -297 -60 -420 -101 -413 -140 -828 -420 -1106 -746 -30
-35 -56 -66 -59 -69 -14 -13 -122 -163 -162 -225 -219 -337 -352 -717 -395
-1125 -15 -138 -8 -503 11 -615 3 -16 8 -43 10 -60 15 -110 65 -303 115 -445
43 -124 115 -281 175 -385 19 -33 43 -73 52 -90 60 -109 232 -329 350 -450
384 -392 904 -663 1419 -740 22 -4 51 -8 65 -11 103 -19 473 -26 600 -12 147
17 153 18 250 38 30 6 66 13 80 16 82 15 344 101 430 141 253 116 409 211 605
369 97 78 255 231 320 309 22 27 45 53 50 59 62 65 215 299 286 436 59 113
148 322 163 385 2 6 6 17 9 25 9 21 63 237 72 285 4 22 9 49 11 60 19 106 29
245 29 420 0 193 -3 251 -16 330 -4 28 -10 66 -13 85 -2 19 -9 58 -15 85 -6
28 -13 61 -15 75 -39 194 -167 521 -278 710 -35 59 -102 165 -108 170 -3 3
-17 21 -30 40 -64 94 -174 223 -291 339 -378 376 -916 641 -1435 706 -27 4
-60 9 -74 11 -29 6 -456 15 -461 10z m386 -1299 c235 -46 437 -129 610 -252
63 -45 75 -55 149 -123 311 -287 444 -714 346 -1114 -21 -86 -70 -213 -102
-268 -16 -28 -20 -52 -20 -115 1 -183 53 -320 203 -534 44 -62 78 -115 76
-117 -2 -2 -36 13 -75 34 -40 20 -129 66 -199 102 -71 36 -130 67 -133 70 -3
3 -57 32 -121 64 l-115 59 -75 -45 c-264 -160 -526 -232 -834 -229 -130 1
-143 2 -255 21 -514 84 -950 439 -1090 888 -21 64 -24 77 -34 132 -23 116 -23
278 -2 393 48 252 153 447 345 637 228 226 527 369 846 405 33 4 62 9 63 10
11 10 349 -5 417 -18z"/>
</g>
</svg>
